<svg width="1620" height="1745" viewBox="0 0 1620 1745" fill="none" xmlns="http://www.w3.org/2000/svg">
<path d="M528.923 846.153C550.554 846.153 564.734 856.457 579.213 869.567V869.568C614.616 901.589 650.031 933.61 685.445 965.631C720.735 997.538 756.024 1029.45 791.302 1061.35L791.209 1061.4L791.585 1061.74C820.899 1088.22 842.764 1108.9 859.96 1139.15C876.277 1167.86 884.875 1200.33 884.875 1234.15C884.875 1267.98 876.323 1300.5 860.007 1329.21C842.81 1359.4 820.992 1380.08 791.678 1406.61C686.557 1501.75 581.436 1596.92 476.27 1692.05V1692.06C452.56 1713.51 431.819 1731.01 401.756 1739.73H401.755C373.264 1748.04 342.415 1745.81 314.239 1733.19C286.503 1720.76 264.456 1699.69 251.44 1673.45L250.828 1672.2C237.204 1643.88 236.229 1616.68 236.229 1584.61V1235.64C236.229 1185.8 238.025 1146.07 257.531 1101.01L258.474 1098.86C278.182 1054.33 305.525 1026.42 341.27 993.881L344.755 990.717C367.076 970.518 389.385 950.33 411.694 930.143C434.004 909.955 456.312 889.767 478.633 869.567C493.111 856.457 507.292 846.153 528.923 846.153ZM1491.73 0.34668C1531.12 0.346793 1568.53 18.5435 1592.03 49.127H1592.03C1617.2 81.8404 1619.65 116.41 1619.65 156.567V509.588C1619.65 561.055 1617.75 601.113 1597.32 647.212C1576.93 693.311 1548.58 721.568 1510.53 756.003L1233.6 1006.63C1205.81 1031.81 1183.52 1051.43 1154.9 1066.62C1127.39 1081.21 1098.36 1088.92 1068.23 1088.92C1038.1 1088.92 1009.03 1081.21 981.566 1066.62C952.944 1051.43 930.607 1031.81 902.819 1006.68H902.818C766.185 883.109 629.562 759.54 492.94 635.972L83.0625 265.265C48.9279 234.403 24.8119 211.131 10.7217 178.397C-2.53274 147.67 -2.90193 114.672 8.55078 84.5967C20.0032 54.5221 42.3063 30.2496 72.6016 16.3252H72.6025C104.766 1.45904 138.086 0.352153 183.854 0.34668V0.393555H530.635C571.427 0.393555 606.567 1.55816 646.56 16.9854C686.507 32.4127 713.465 55.1803 743.793 82.5898C805.962 138.824 868.157 195.085 930.359 251.332L992.563 307.574C1010.59 323.926 1024.06 333.122 1046.05 333.122C1068.04 333.122 1081.51 323.925 1099.54 307.573C1192.8 223.146 1286.12 138.673 1379.43 54.2461C1395.78 39.4451 1410.8 26.2078 1430.48 15.8516C1449.56 5.82267 1470.02 0.34668 1491.73 0.34668Z" fill="#17224B" stroke="#17224B" stroke-width="0.693494"/>
</svg>
